<svg width="28" height="28" viewBox="0 0 28 28" fill="none" xmlns="http://www.w3.org/2000/svg">
<path d="M13.9993 23.333L10.4993 19.833H8.16602C7.23776 19.833 6.34752 19.4643 5.69114 18.8079C5.03476 18.1515 4.66602 17.2613 4.66602 16.333V9.33301C4.66602 8.40475 5.03476 7.51451 5.69114 6.85813C6.34752 6.20176 7.23776 5.83301 8.16602 5.83301H19.8327C20.7609 5.83301 21.6512 6.20176 22.3076 6.85813C22.9639 7.51451 23.3327 8.40475 23.3327 9.33301V16.333C23.3327 17.2613 22.9639 18.1515 22.3076 18.8079C21.6512 19.4643 20.7609 19.833 19.8327 19.833H17.4993L13.9993 23.333Z" stroke="#7D7C83" stroke-width="1.75" stroke-linecap="round" stroke-linejoin="round"/>
<path d="M9.33398 10.5H18.6673" stroke="#7D7C83" stroke-width="1.75" stroke-linecap="round" stroke-linejoin="round"/>
<path d="M9.33398 15.167H16.334" stroke="#7D7C83" stroke-width="1.75" stroke-linecap="round" stroke-linejoin="round"/>
</svg>
